<svg width="250" height="300" viewBox="0 0 250 300" fill="none" xmlns="http://www.w3.org/2000/svg">
<rect width="250" height="300" rx="12" fill="#283E56"/>
<path d="M94.967 181.632V177.3H84.745V167.154H110.357V177.3H100.629V181.632H102.947L98.007 194.134H97.779L92.725 181.632H94.967ZM110.357 210.094H84.745V181.632H87.063L95.803 202H99.337L108.115 181.632H110.357V210.094ZM109.418 210.094V167.154H117.322V210.094H109.418ZM116.362 210.094V167.154H138.288V210.094H116.362ZM136.73 194.514C136.73 192.411 136.211 190.866 135.172 189.878C134.159 188.865 132.968 188.181 131.6 187.826C130.258 187.446 129.08 187.155 128.066 186.952C126.952 186.699 125.964 186.369 125.102 185.964C124.241 185.559 123.81 184.837 123.81 183.798C123.81 182.911 124.14 182.291 124.798 181.936C125.482 181.581 126.331 181.404 127.344 181.404C127.952 181.404 128.573 181.48 129.206 181.632C129.865 181.784 130.511 182.075 131.144 182.506L131.486 185.394L135.552 185.014L135.324 179.656C134.539 178.82 133.412 178.161 131.942 177.68C130.473 177.173 128.928 176.92 127.306 176.92C125.077 176.92 123.025 177.49 121.15 178.63C119.276 179.745 118.338 181.683 118.338 184.444C118.338 186.217 118.744 187.56 119.554 188.472C120.365 189.359 121.366 190.005 122.556 190.41C123.772 190.79 124.976 191.081 126.166 191.284C127.534 191.537 128.725 191.905 129.738 192.386C130.752 192.842 131.258 193.754 131.258 195.122C131.258 196.363 130.828 197.161 129.966 197.516C129.105 197.845 128.003 198.01 126.66 198.01C126.23 198.01 125.71 197.972 125.102 197.896C124.494 197.795 123.76 197.516 122.898 197.06L122.936 194.058L118.87 193.678L118.11 199.796C119.073 200.657 120.378 201.303 122.024 201.734C123.696 202.165 125.368 202.38 127.04 202.38C130.055 202.38 132.424 201.709 134.146 200.366C135.869 199.023 136.73 197.073 136.73 194.514ZM137.325 210.094V167.154H145.229V210.094H137.325ZM144.268 210.094V167.154H166.27V210.094H144.268ZM146.13 202H164.674L165.434 193.26L161.102 192.88L160.342 197.668H153.882V181.632H157.34V177.3H146.13V181.632H148.79V197.668H146.13V202Z" fill="white"/>
<path d="M68.6598 226.453C68.5935 225.833 68.3142 225.35 67.8217 225.004C67.334 224.659 66.6996 224.486 65.9183 224.486C65.3691 224.486 64.898 224.569 64.505 224.734C64.112 224.9 63.8113 225.125 63.603 225.409C63.3946 225.693 63.2881 226.018 63.2834 226.382C63.2834 226.685 63.352 226.948 63.4893 227.17C63.6314 227.393 63.8232 227.582 64.0646 227.739C64.3061 227.89 64.5736 228.018 64.8672 228.122C65.1607 228.226 65.4567 228.314 65.755 228.385L67.1186 228.726C67.6679 228.854 68.1958 229.027 68.7024 229.244C69.2138 229.462 69.6707 229.737 70.0732 230.068C70.4804 230.4 70.8023 230.8 71.0391 231.268C71.2758 231.737 71.3942 232.286 71.3942 232.916C71.3942 233.768 71.1764 234.519 70.7408 235.168C70.3052 235.812 69.6754 236.316 68.8516 236.68C68.0324 237.04 67.0405 237.22 65.8757 237.22C64.7441 237.22 63.7616 237.045 62.9283 236.695C62.0997 236.344 61.451 235.833 60.9822 235.161C60.5182 234.488 60.2673 233.669 60.2294 232.703H62.8217C62.8596 233.21 63.0159 233.631 63.2905 233.967C63.5651 234.304 63.9226 234.554 64.3629 234.72C64.808 234.886 65.3052 234.969 65.8544 234.969C66.4273 234.969 66.9292 234.884 67.3601 234.713C67.7957 234.538 68.1366 234.296 68.3828 233.989C68.629 233.676 68.7545 233.312 68.7592 232.895C68.7545 232.516 68.6432 232.204 68.4254 231.957C68.2076 231.706 67.9022 231.498 67.5092 231.332C67.121 231.162 66.6664 231.01 66.1456 230.878L64.4908 230.452C63.2929 230.144 62.3459 229.678 61.6499 229.053C60.9586 228.423 60.6129 227.587 60.6129 226.545C60.6129 225.688 60.8449 224.938 61.3089 224.294C61.7777 223.65 62.4145 223.151 63.2195 222.795C64.0244 222.436 64.9358 222.256 65.9538 222.256C66.986 222.256 67.8904 222.436 68.6669 222.795C69.4482 223.151 70.0613 223.645 70.5064 224.28C70.9515 224.91 71.1811 225.634 71.1953 226.453H68.6598ZM73.6296 237V226.091H76.2006V237H73.6296ZM74.9222 224.543C74.515 224.543 74.1647 224.408 73.8711 224.138C73.5775 223.863 73.4308 223.534 73.4308 223.151C73.4308 222.762 73.5775 222.433 73.8711 222.163C74.1647 221.889 74.515 221.751 74.9222 221.751C75.3342 221.751 75.6845 221.889 75.9734 222.163C76.2669 222.433 76.4137 222.762 76.4137 223.151C76.4137 223.534 76.2669 223.863 75.9734 224.138C75.6845 224.408 75.3342 224.543 74.9222 224.543ZM83.5888 241.318C82.6655 241.318 81.8724 241.193 81.2095 240.942C80.5466 240.696 80.014 240.364 79.6115 239.947C79.209 239.531 78.9297 239.069 78.7734 238.562L81.0888 238.001C81.1929 238.214 81.3445 238.425 81.5433 238.634C81.7422 238.847 82.0097 239.022 82.3459 239.159C82.6868 239.301 83.1153 239.372 83.6314 239.372C84.3606 239.372 84.9643 239.195 85.4425 238.839C85.9207 238.489 86.1598 237.911 86.1598 237.107V235.04H86.032C85.8994 235.305 85.7053 235.577 85.4496 235.857C85.1986 236.136 84.8648 236.37 84.4482 236.56C84.0362 236.749 83.5178 236.844 82.8928 236.844C82.0547 236.844 81.2947 236.647 80.6129 236.254C79.9358 235.857 79.3961 235.265 78.9936 234.479C78.5959 233.688 78.397 232.698 78.397 231.51C78.397 230.312 78.5959 229.301 78.9936 228.477C79.3961 227.649 79.9382 227.021 80.62 226.595C81.3018 226.164 82.0618 225.949 82.8999 225.949C83.5391 225.949 84.0646 226.058 84.4766 226.276C84.8932 226.489 85.2247 226.747 85.4709 227.05C85.7171 227.348 85.9041 227.63 86.032 227.895H86.174V226.091H88.7095V237.178C88.7095 238.11 88.487 238.882 88.0419 239.493C87.5968 240.104 86.9884 240.561 86.2166 240.864C85.4448 241.167 84.5689 241.318 83.5888 241.318ZM83.6101 234.827C84.1546 234.827 84.6186 234.694 85.0021 234.429C85.3857 234.164 85.6768 233.783 85.8757 233.286C86.0746 232.788 86.174 232.192 86.174 231.496C86.174 230.809 86.0746 230.208 85.8757 229.692C85.6816 229.176 85.3928 228.776 85.0092 228.491C84.6304 228.203 84.1641 228.058 83.6101 228.058C83.0372 228.058 82.5589 228.207 82.1754 228.506C81.7919 228.804 81.5031 229.214 81.3089 229.734C81.1148 230.25 81.0178 230.838 81.0178 231.496C81.0178 232.163 81.1148 232.748 81.3089 233.25C81.5078 233.747 81.799 234.135 82.1825 234.415C82.5708 234.689 83.0466 234.827 83.6101 234.827ZM93.9155 230.608V237H91.3445V226.091H93.8018V227.945H93.9297C94.1806 227.334 94.5807 226.848 95.13 226.489C95.6839 226.129 96.3681 225.949 97.1825 225.949C97.9354 225.949 98.5911 226.11 99.1499 226.432C99.7133 226.754 100.149 227.22 100.457 227.831C100.769 228.442 100.923 229.183 100.918 230.054V237H98.3473V230.452C98.3473 229.723 98.1579 229.152 97.7791 228.74C97.4051 228.328 96.8866 228.122 96.2237 228.122C95.7739 228.122 95.3738 228.222 95.0234 228.42C94.6778 228.615 94.4055 228.896 94.2067 229.266C94.0125 229.635 93.9155 230.082 93.9155 230.608ZM108.607 237V222.455H111.241V234.791H117.648V237H108.607ZM122.96 237.22C122.269 237.22 121.646 237.097 121.092 236.851C120.543 236.6 120.107 236.231 119.786 235.743C119.468 235.255 119.31 234.654 119.31 233.939C119.31 233.323 119.423 232.814 119.651 232.412C119.878 232.009 120.188 231.688 120.581 231.446C120.974 231.205 121.417 231.022 121.909 230.899C122.406 230.771 122.92 230.679 123.45 230.622C124.089 230.556 124.608 230.497 125.006 230.445C125.403 230.388 125.692 230.303 125.872 230.189C126.057 230.071 126.149 229.888 126.149 229.642V229.599C126.149 229.064 125.991 228.65 125.673 228.357C125.356 228.063 124.899 227.916 124.303 227.916C123.673 227.916 123.173 228.054 122.804 228.328C122.439 228.603 122.193 228.927 122.065 229.301L119.665 228.96C119.854 228.297 120.167 227.743 120.602 227.298C121.038 226.848 121.571 226.512 122.2 226.29C122.83 226.062 123.526 225.949 124.288 225.949C124.814 225.949 125.337 226.01 125.858 226.134C126.379 226.257 126.855 226.46 127.286 226.744C127.716 227.024 128.062 227.405 128.322 227.888C128.588 228.371 128.72 228.974 128.72 229.699V237H126.249V235.501H126.163C126.007 235.804 125.787 236.089 125.503 236.354C125.223 236.614 124.871 236.825 124.445 236.986C124.023 237.142 123.528 237.22 122.96 237.22ZM123.628 235.331C124.144 235.331 124.591 235.229 124.97 235.026C125.349 234.817 125.64 234.543 125.844 234.202C126.052 233.861 126.156 233.489 126.156 233.087V231.801C126.076 231.867 125.938 231.929 125.744 231.986C125.555 232.043 125.342 232.092 125.105 232.135C124.868 232.178 124.634 232.215 124.402 232.249C124.17 232.282 123.969 232.31 123.798 232.334C123.415 232.386 123.071 232.471 122.768 232.589C122.465 232.708 122.226 232.874 122.051 233.087C121.876 233.295 121.788 233.565 121.788 233.896C121.788 234.37 121.961 234.727 122.307 234.969C122.652 235.21 123.093 235.331 123.628 235.331ZM133.876 230.608V237H131.305V226.091H133.763V227.945H133.891C134.142 227.334 134.542 226.848 135.091 226.489C135.645 226.129 136.329 225.949 137.143 225.949C137.896 225.949 138.552 226.11 139.111 226.432C139.674 226.754 140.11 227.22 140.418 227.831C140.73 228.442 140.884 229.183 140.879 230.054V237H138.308V230.452C138.308 229.723 138.119 229.152 137.74 228.74C137.366 228.328 136.848 228.122 136.185 228.122C135.735 228.122 135.335 228.222 134.984 228.42C134.639 228.615 134.366 228.896 134.168 229.266C133.973 229.635 133.876 230.082 133.876 230.608ZM148.237 241.318C147.314 241.318 146.521 241.193 145.858 240.942C145.195 240.696 144.662 240.364 144.26 239.947C143.857 239.531 143.578 239.069 143.422 238.562L145.737 238.001C145.841 238.214 145.993 238.425 146.192 238.634C146.391 238.847 146.658 239.022 146.994 239.159C147.335 239.301 147.764 239.372 148.28 239.372C149.009 239.372 149.613 239.195 150.091 238.839C150.569 238.489 150.808 237.911 150.808 237.107V235.04H150.68C150.548 235.305 150.354 235.577 150.098 235.857C149.847 236.136 149.513 236.37 149.097 236.56C148.685 236.749 148.166 236.844 147.541 236.844C146.703 236.844 145.943 236.647 145.261 236.254C144.584 235.857 144.045 235.265 143.642 234.479C143.244 233.688 143.045 232.698 143.045 231.51C143.045 230.312 143.244 229.301 143.642 228.477C144.045 227.649 144.587 227.021 145.268 226.595C145.95 226.164 146.71 225.949 147.548 225.949C148.188 225.949 148.713 226.058 149.125 226.276C149.542 226.489 149.873 226.747 150.119 227.05C150.366 227.348 150.553 227.63 150.68 227.895H150.822V226.091H153.358V237.178C153.358 238.11 153.135 238.882 152.69 239.493C152.245 240.104 151.637 240.561 150.865 240.864C150.093 241.167 149.217 241.318 148.237 241.318ZM148.259 234.827C148.803 234.827 149.267 234.694 149.651 234.429C150.034 234.164 150.325 233.783 150.524 233.286C150.723 232.788 150.822 232.192 150.822 231.496C150.822 230.809 150.723 230.208 150.524 229.692C150.33 229.176 150.041 228.776 149.658 228.491C149.279 228.203 148.813 228.058 148.259 228.058C147.686 228.058 147.207 228.207 146.824 228.506C146.44 228.804 146.152 229.214 145.957 229.734C145.763 230.25 145.666 230.838 145.666 231.496C145.666 232.163 145.763 232.748 145.957 233.25C146.156 233.747 146.447 234.135 146.831 234.415C147.219 234.689 147.695 234.827 148.259 234.827ZM162.946 232.412V226.091H165.517V237H163.024V235.061H162.911C162.664 235.672 162.259 236.171 161.696 236.56C161.137 236.948 160.448 237.142 159.629 237.142C158.914 237.142 158.282 236.983 157.733 236.666C157.188 236.344 156.762 235.878 156.455 235.267C156.147 234.652 155.993 233.908 155.993 233.037V226.091H158.564V232.639C158.564 233.33 158.753 233.88 159.132 234.287C159.511 234.694 160.008 234.898 160.624 234.898C161.002 234.898 161.369 234.805 161.724 234.621C162.08 234.436 162.371 234.161 162.598 233.797C162.83 233.428 162.946 232.966 162.946 232.412ZM171.3 237.22C170.609 237.22 169.986 237.097 169.432 236.851C168.883 236.6 168.447 236.231 168.125 235.743C167.808 235.255 167.65 234.654 167.65 233.939C167.65 233.323 167.763 232.814 167.99 232.412C168.218 232.009 168.528 231.688 168.921 231.446C169.314 231.205 169.757 231.022 170.249 230.899C170.746 230.771 171.26 230.679 171.79 230.622C172.429 230.556 172.948 230.497 173.346 230.445C173.743 230.388 174.032 230.303 174.212 230.189C174.397 230.071 174.489 229.888 174.489 229.642V229.599C174.489 229.064 174.33 228.65 174.013 228.357C173.696 228.063 173.239 227.916 172.642 227.916C172.013 227.916 171.513 228.054 171.144 228.328C170.779 228.603 170.533 228.927 170.405 229.301L168.005 228.96C168.194 228.297 168.507 227.743 168.942 227.298C169.378 226.848 169.91 226.512 170.54 226.29C171.17 226.062 171.866 225.949 172.628 225.949C173.154 225.949 173.677 226.01 174.198 226.134C174.719 226.257 175.194 226.46 175.625 226.744C176.056 227.024 176.402 227.405 176.662 227.888C176.927 228.371 177.06 228.974 177.06 229.699V237H174.588V235.501H174.503C174.347 235.804 174.127 236.089 173.843 236.354C173.563 236.614 173.211 236.825 172.784 236.986C172.363 237.142 171.868 237.22 171.3 237.22ZM171.968 235.331C172.484 235.331 172.931 235.229 173.31 235.026C173.689 234.817 173.98 234.543 174.184 234.202C174.392 233.861 174.496 233.489 174.496 233.087V231.801C174.416 231.867 174.278 231.929 174.084 231.986C173.895 232.043 173.682 232.092 173.445 232.135C173.208 232.178 172.974 232.215 172.742 232.249C172.51 232.282 172.309 232.31 172.138 232.334C171.755 232.386 171.411 232.471 171.108 232.589C170.805 232.708 170.566 232.874 170.391 233.087C170.216 233.295 170.128 233.565 170.128 233.896C170.128 234.37 170.301 234.727 170.647 234.969C170.992 235.21 171.433 235.331 171.968 235.331ZM184.39 241.318C183.466 241.318 182.673 241.193 182.01 240.942C181.347 240.696 180.815 240.364 180.412 239.947C180.01 239.531 179.73 239.069 179.574 238.562L181.89 238.001C181.994 238.214 182.145 238.425 182.344 238.634C182.543 238.847 182.81 239.022 183.147 239.159C183.488 239.301 183.916 239.372 184.432 239.372C185.161 239.372 185.765 239.195 186.243 238.839C186.721 238.489 186.961 237.911 186.961 237.107V235.04H186.833C186.7 235.305 186.506 235.577 186.25 235.857C185.999 236.136 185.666 236.37 185.249 236.56C184.837 236.749 184.319 236.844 183.694 236.844C182.855 236.844 182.096 236.647 181.414 236.254C180.737 235.857 180.197 235.265 179.794 234.479C179.397 233.688 179.198 232.698 179.198 231.51C179.198 230.312 179.397 229.301 179.794 228.477C180.197 227.649 180.739 227.021 181.421 226.595C182.103 226.164 182.863 225.949 183.701 225.949C184.34 225.949 184.865 226.058 185.277 226.276C185.694 226.489 186.025 226.747 186.272 227.05C186.518 227.348 186.705 227.63 186.833 227.895H186.975V226.091H189.51V237.178C189.51 238.11 189.288 238.882 188.843 239.493C188.398 240.104 187.789 240.561 187.017 240.864C186.246 241.167 185.37 241.318 184.39 241.318ZM184.411 234.827C184.955 234.827 185.419 234.694 185.803 234.429C186.186 234.164 186.478 233.783 186.676 233.286C186.875 232.788 186.975 232.192 186.975 231.496C186.975 230.809 186.875 230.208 186.676 229.692C186.482 229.176 186.194 228.776 185.81 228.491C185.431 228.203 184.965 228.058 184.411 228.058C183.838 228.058 183.36 228.207 182.976 228.506C182.593 228.804 182.304 229.214 182.11 229.734C181.916 230.25 181.819 230.838 181.819 231.496C181.819 232.163 181.916 232.748 182.11 233.25C182.309 233.747 182.6 234.135 182.983 234.415C183.372 234.689 183.847 234.827 184.411 234.827ZM196.975 237.213C195.881 237.213 194.936 236.986 194.141 236.531C193.35 236.072 192.742 235.423 192.316 234.585C191.89 233.742 191.676 232.75 191.676 231.609C191.676 230.487 191.89 229.502 192.316 228.655C192.747 227.803 193.348 227.14 194.12 226.666C194.891 226.188 195.798 225.949 196.84 225.949C197.512 225.949 198.147 226.058 198.743 226.276C199.345 226.489 199.875 226.82 200.334 227.27C200.798 227.72 201.163 228.293 201.428 228.989C201.693 229.68 201.826 230.504 201.826 231.46V232.249H192.884V230.516H199.361C199.356 230.023 199.25 229.585 199.042 229.202C198.833 228.813 198.542 228.508 198.168 228.286C197.799 228.063 197.368 227.952 196.875 227.952C196.35 227.952 195.888 228.08 195.49 228.335C195.093 228.586 194.783 228.918 194.56 229.33C194.342 229.737 194.231 230.184 194.226 230.672V232.185C194.226 232.819 194.342 233.364 194.574 233.818C194.806 234.268 195.131 234.614 195.547 234.855C195.964 235.092 196.452 235.21 197.01 235.21C197.384 235.21 197.723 235.158 198.026 235.054C198.329 234.945 198.592 234.786 198.814 234.578C199.037 234.37 199.205 234.112 199.319 233.804L201.719 234.074C201.568 234.708 201.279 235.262 200.853 235.736C200.431 236.205 199.891 236.569 199.233 236.83C198.575 237.085 197.822 237.213 196.975 237.213Z" fill="white"/>
<path fill-rule="evenodd" clip-rule="evenodd" d="M91.6269 128.145C93.1905 127.212 95.1971 127.753 96.1089 129.354C99.722 135.697 105.246 140.494 112.058 143.606C113.71 144.361 114.452 146.345 113.715 148.038C112.977 149.729 111.039 150.489 109.386 149.734C101.47 146.117 94.8293 140.428 90.4467 132.734C89.5349 131.133 90.0633 129.079 91.6269 128.145Z" fill="white"/>
<path fill-rule="evenodd" clip-rule="evenodd" d="M154.534 64.1007C150.225 59.3106 144.078 57.5437 138.061 59.407C136.368 59.9314 134.604 58.8624 134.122 57.0194C133.641 55.1764 134.623 53.2572 136.316 52.7328C144.555 50.1816 153.126 52.6173 159.09 59.246C160.322 60.6151 160.3 62.8118 159.043 64.1523C157.784 65.4929 155.766 65.4698 154.534 64.1007Z" fill="white"/>
<path fill-rule="evenodd" clip-rule="evenodd" d="M121.465 60.366C120.531 58.6508 117.807 57.6106 115.041 59.3028C112.285 60.9888 111.8 63.9607 112.718 65.646L123.744 85.8833C124.655 87.5552 124.127 89.7009 122.565 90.6759C121.003 91.651 118.998 91.0859 118.087 89.4139L103.386 62.4309C102.452 60.7157 99.7285 59.6755 96.9622 61.3677C94.206 63.0537 93.7213 66.0256 94.6395 67.7109L111.178 98.0668C112.089 99.7386 111.561 101.885 109.999 102.859C108.437 103.835 106.432 103.27 105.521 101.597L98.1709 88.106C97.2364 86.3908 94.5132 85.3507 91.7469 87.0428C88.9907 88.7288 88.5059 91.7005 89.4242 93.3859L105.963 123.742C112.987 136.634 130.319 140.818 145.018 131.826C159.706 122.842 164.927 104.892 157.92 92.0299L146.894 71.7926C145.96 70.0774 143.237 69.0372 140.47 70.7294C137.714 72.4154 137.229 75.3873 138.148 77.0726L145.498 90.5641C145.938 91.3716 146.058 92.3336 145.832 93.2363C145.606 94.1395 145.053 94.9082 144.294 95.3722C137.561 99.491 135.497 107.455 138.445 112.866C139.356 114.538 138.828 116.684 137.266 117.659C135.704 118.634 133.699 118.069 132.788 116.397C128.804 109.084 130.414 100.277 135.56 94.0536C136.999 92.3135 137.492 89.7822 136.398 87.775L121.465 60.366Z" fill="white"/>
</svg>
