<svg width="100" height="139" viewBox="0 0 100 139" fill="none" xmlns="http://www.w3.org/2000/svg">
<rect width="100" height="139" rx="12" fill="#283E56"/>
<path d="M25.2841 87.5455L29.1875 100.33H29.3324L33.2358 87.5455H37.9574L32.0682 105H26.4517L20.5625 87.5455H25.2841ZM54.4276 92.7784C54.3707 92.1534 54.1179 91.6676 53.669 91.321C53.2259 90.9688 52.5923 90.7926 51.7685 90.7926C51.223 90.7926 50.7685 90.8636 50.4048 91.0057C50.0412 91.1477 49.7685 91.3438 49.5866 91.5938C49.4048 91.8381 49.3111 92.1193 49.3054 92.4375C49.294 92.6989 49.3452 92.929 49.4588 93.1278C49.5781 93.3267 49.7486 93.5028 49.9702 93.6562C50.1974 93.804 50.4702 93.9347 50.7884 94.0483C51.1065 94.1619 51.4645 94.2614 51.8622 94.3466L53.3622 94.6875C54.2259 94.875 54.9872 95.125 55.6463 95.4375C56.3111 95.75 56.8679 96.1222 57.3168 96.554C57.7713 96.9858 58.1151 97.483 58.348 98.0455C58.581 98.608 58.7003 99.2386 58.706 99.9375C58.7003 101.04 58.4219 101.986 57.8707 102.776C57.3196 103.565 56.527 104.17 55.4929 104.591C54.4645 105.011 53.223 105.222 51.7685 105.222C50.3082 105.222 49.0355 105.003 47.9503 104.565C46.8651 104.128 46.0213 103.463 45.419 102.571C44.8168 101.679 44.5071 100.551 44.4901 99.1875H48.5298C48.5639 99.75 48.7145 100.219 48.9815 100.594C49.2486 100.969 49.6151 101.253 50.081 101.446C50.5526 101.639 51.098 101.736 51.7173 101.736C52.2855 101.736 52.7685 101.659 53.1662 101.506C53.5696 101.352 53.8793 101.139 54.0952 100.866C54.3111 100.594 54.4219 100.281 54.4276 99.929C54.4219 99.5994 54.3196 99.3182 54.1207 99.0852C53.9219 98.8466 53.6151 98.642 53.2003 98.4716C52.7912 98.2955 52.2685 98.1335 51.6321 97.9858L49.8082 97.5597C48.2969 97.2131 47.1065 96.6534 46.2372 95.8807C45.3679 95.1023 44.9361 94.0511 44.9418 92.7273C44.9361 91.6477 45.2259 90.7017 45.8111 89.8892C46.3963 89.0767 47.206 88.4432 48.2401 87.9886C49.2741 87.5341 50.4531 87.3068 51.777 87.3068C53.1293 87.3068 54.3026 87.5369 55.2969 87.9972C56.2969 88.4517 57.0724 89.0909 57.6236 89.9148C58.1747 90.7386 58.456 91.6932 58.4673 92.7784H54.4276ZM65.9929 105V87.5455H70.2116V101.574H77.473V105H65.9929Z" fill="white"/>
<path d="M18.6697 115.727C18.6366 115.416 18.4969 115.175 18.2507 115.002C18.0069 114.829 17.6896 114.743 17.299 114.743C17.0244 114.743 16.7888 114.784 16.5923 114.867C16.3958 114.95 16.2455 115.062 16.1413 115.205C16.0372 115.347 15.9839 115.509 15.9815 115.691C15.9815 115.843 16.0159 115.974 16.0845 116.085C16.1555 116.196 16.2514 116.291 16.3722 116.369C16.4929 116.445 16.6267 116.509 16.7734 116.561C16.9202 116.613 17.0682 116.657 17.2173 116.692L17.8991 116.863C18.1738 116.927 18.4377 117.013 18.6911 117.122C18.9467 117.231 19.1752 117.368 19.3764 117.534C19.58 117.7 19.741 117.9 19.8594 118.134C19.9777 118.369 20.0369 118.643 20.0369 118.958C20.0369 119.384 19.928 119.759 19.7102 120.084C19.4924 120.406 19.1776 120.658 18.7656 120.84C18.3561 121.02 17.8601 121.11 17.2777 121.11C16.7119 121.11 16.2206 121.022 15.804 120.847C15.3897 120.672 15.0653 120.416 14.831 120.08C14.599 119.744 14.4735 119.335 14.4545 118.852H15.7507C15.7696 119.105 15.8478 119.316 15.9851 119.484C16.1224 119.652 16.3011 119.777 16.5213 119.86C16.7438 119.943 16.9924 119.984 17.267 119.984C17.5535 119.984 17.8045 119.942 18.0199 119.857C18.2377 119.769 18.4081 119.648 18.5312 119.494C18.6544 119.338 18.7171 119.156 18.7195 118.947C18.7171 118.758 18.6615 118.602 18.5526 118.479C18.4437 118.353 18.291 118.249 18.0945 118.166C17.9003 118.081 17.6731 118.005 17.4126 117.939L16.5852 117.726C15.9863 117.572 15.5128 117.339 15.1648 117.026C14.8191 116.711 14.6463 116.294 14.6463 115.773C14.6463 115.344 14.7623 114.969 14.9943 114.647C15.2287 114.325 15.5471 114.075 15.9496 113.898C16.352 113.718 16.8078 113.628 17.3168 113.628C17.8329 113.628 18.285 113.718 18.6733 113.898C19.0639 114.075 19.3705 114.323 19.593 114.64C19.8156 114.955 19.9304 115.317 19.9375 115.727H18.6697ZM21.1547 121V115.545H22.4402V121H21.1547ZM21.801 114.771C21.5974 114.771 21.4222 114.704 21.2754 114.569C21.1286 114.432 21.0552 114.267 21.0552 114.075C21.0552 113.881 21.1286 113.717 21.2754 113.582C21.4222 113.444 21.5974 113.376 21.801 113.376C22.0069 113.376 22.1821 113.444 22.3265 113.582C22.4733 113.717 22.5467 113.881 22.5467 114.075C22.5467 114.267 22.4733 114.432 22.3265 114.569C22.1821 114.704 22.0069 114.771 21.801 114.771ZM26.1342 123.159C25.6726 123.159 25.276 123.096 24.9446 122.971C24.6132 122.848 24.3468 122.682 24.1456 122.474C23.9444 122.265 23.8047 122.035 23.7266 121.781L24.8842 121.501C24.9363 121.607 25.0121 121.713 25.1115 121.817C25.2109 121.923 25.3447 122.011 25.5128 122.08C25.6832 122.151 25.8975 122.186 26.1555 122.186C26.5201 122.186 26.822 122.097 27.0611 121.92C27.3002 121.745 27.4197 121.456 27.4197 121.053V120.02H27.3558C27.2895 120.152 27.1925 120.289 27.0646 120.428C26.9392 120.568 26.7723 120.685 26.5639 120.78C26.358 120.875 26.0987 120.922 25.7862 120.922C25.3672 120.922 24.9872 120.824 24.6463 120.627C24.3078 120.428 24.0379 120.132 23.8366 119.739C23.6378 119.344 23.5384 118.849 23.5384 118.255C23.5384 117.656 23.6378 117.151 23.8366 116.739C24.0379 116.324 24.3089 116.011 24.6499 115.798C24.9908 115.582 25.3707 115.474 25.7898 115.474C26.1094 115.474 26.3722 115.529 26.5781 115.638C26.7865 115.744 26.9522 115.873 27.0753 116.025C27.1984 116.174 27.2919 116.315 27.3558 116.447H27.4268V115.545H28.6946V121.089C28.6946 121.555 28.5833 121.941 28.3608 122.246C28.1383 122.552 27.834 122.78 27.4482 122.932C27.0623 123.083 26.6243 123.159 26.1342 123.159ZM26.1449 119.913C26.4171 119.913 26.6491 119.847 26.8409 119.714C27.0327 119.582 27.1783 119.391 27.2777 119.143C27.3771 118.894 27.4268 118.596 27.4268 118.248C27.4268 117.905 27.3771 117.604 27.2777 117.346C27.1806 117.088 27.0362 116.888 26.8445 116.746C26.6551 116.601 26.4219 116.529 26.1449 116.529C25.8584 116.529 25.6193 116.604 25.4276 116.753C25.2358 116.902 25.0914 117.107 24.9943 117.367C24.8973 117.625 24.8487 117.919 24.8487 118.248C24.8487 118.582 24.8973 118.874 24.9943 119.125C25.0938 119.374 25.2393 119.568 25.4311 119.707C25.6252 119.845 25.8632 119.913 26.1449 119.913ZM31.2976 117.804V121H30.0121V115.545H31.2408V116.472H31.3047C31.4302 116.167 31.6302 115.924 31.9048 115.744C32.1818 115.564 32.5239 115.474 32.9311 115.474C33.3075 115.474 33.6354 115.555 33.9148 115.716C34.1965 115.877 34.4143 116.11 34.5682 116.415C34.7244 116.721 34.8014 117.091 34.799 117.527V121H33.5135V117.726C33.5135 117.361 33.4188 117.076 33.2294 116.87C33.0424 116.664 32.7831 116.561 32.4517 116.561C32.2268 116.561 32.0268 116.611 31.8516 116.71C31.6787 116.807 31.5426 116.948 31.4432 117.133C31.3461 117.317 31.2976 117.541 31.2976 117.804ZM38.6431 121V113.727H39.9606V119.896H43.1637V121H38.6431ZM45.82 121.11C45.4743 121.11 45.163 121.049 44.886 120.925C44.6114 120.8 44.3936 120.615 44.2326 120.371C44.074 120.128 43.9947 119.827 43.9947 119.469C43.9947 119.162 44.0515 118.907 44.1651 118.706C44.2788 118.505 44.4338 118.344 44.6303 118.223C44.8268 118.102 45.0482 118.011 45.2944 117.95C45.543 117.886 45.7998 117.839 46.065 117.811C46.3846 117.778 46.6438 117.748 46.8427 117.722C47.0415 117.694 47.186 117.651 47.2759 117.594C47.3683 117.535 47.4144 117.444 47.4144 117.321V117.3C47.4144 117.032 47.3351 116.825 47.1765 116.678C47.0179 116.531 46.7894 116.458 46.4911 116.458C46.1763 116.458 45.9265 116.527 45.7418 116.664C45.5595 116.801 45.4364 116.964 45.3725 117.151L44.1722 116.98C44.2669 116.649 44.4232 116.372 44.641 116.149C44.8588 115.924 45.1251 115.756 45.44 115.645C45.7549 115.531 46.1029 115.474 46.484 115.474C46.7468 115.474 47.0084 115.505 47.2688 115.567C47.5292 115.628 47.7672 115.73 47.9826 115.872C48.198 116.012 48.3709 116.202 48.5011 116.444C48.6336 116.685 48.6999 116.987 48.6999 117.349V121H47.4641V120.251H47.4215C47.3434 120.402 47.2333 120.544 47.0913 120.677C46.9516 120.807 46.7752 120.912 46.5621 120.993C46.3514 121.071 46.104 121.11 45.82 121.11ZM46.1538 120.165C46.4118 120.165 46.6355 120.115 46.8249 120.013C47.0143 119.909 47.1599 119.771 47.2617 119.601C47.3659 119.43 47.418 119.245 47.418 119.043V118.401C47.3777 118.434 47.3091 118.464 47.212 118.493C47.1173 118.521 47.0108 118.546 46.8924 118.567C46.774 118.589 46.6568 118.608 46.5408 118.624C46.4248 118.641 46.3242 118.655 46.239 118.667C46.0472 118.693 45.8756 118.736 45.7241 118.795C45.5726 118.854 45.453 118.937 45.3654 119.043C45.2778 119.147 45.234 119.282 45.234 119.448C45.234 119.685 45.3204 119.864 45.4933 119.984C45.6661 120.105 45.8862 120.165 46.1538 120.165ZM51.2781 117.804V121H49.9925V115.545H51.2212V116.472H51.2852C51.4106 116.167 51.6107 115.924 51.8853 115.744C52.1623 115.564 52.5044 115.474 52.9116 115.474C53.288 115.474 53.6159 115.555 53.8952 115.716C54.177 115.877 54.3948 116.11 54.5487 116.415C54.7049 116.721 54.7818 117.091 54.7795 117.527V121H53.494V117.726C53.494 117.361 53.3993 117.076 53.2099 116.87C53.0228 116.664 52.7636 116.561 52.4322 116.561C52.2073 116.561 52.0072 116.611 51.832 116.71C51.6592 116.807 51.5231 116.948 51.4237 117.133C51.3266 117.317 51.2781 117.541 51.2781 117.804ZM58.4585 123.159C57.9968 123.159 57.6003 123.096 57.2688 122.971C56.9374 122.848 56.671 122.682 56.4698 122.474C56.2686 122.265 56.1289 122.035 56.0508 121.781L57.2085 121.501C57.2605 121.607 57.3363 121.713 57.4357 121.817C57.5352 121.923 57.6689 122.011 57.837 122.08C58.0075 122.151 58.2217 122.186 58.4798 122.186C58.8443 122.186 59.1462 122.097 59.3853 121.92C59.6244 121.745 59.744 121.456 59.744 121.053V120.02H59.68C59.6138 120.152 59.5167 120.289 59.3888 120.428C59.2634 120.568 59.0965 120.685 58.8881 120.78C58.6822 120.875 58.4229 120.922 58.1104 120.922C57.6914 120.922 57.3114 120.824 56.9705 120.627C56.632 120.428 56.3621 120.132 56.1609 119.739C55.962 119.344 55.8626 118.849 55.8626 118.255C55.8626 117.656 55.962 117.151 56.1609 116.739C56.3621 116.324 56.6332 116.011 56.9741 115.798C57.315 115.582 57.695 115.474 58.114 115.474C58.4336 115.474 58.6964 115.529 58.9023 115.638C59.1107 115.744 59.2764 115.873 59.3995 116.025C59.5226 116.174 59.6161 116.315 59.68 116.447H59.7511V115.545H61.0188V121.089C61.0188 121.555 60.9076 121.941 60.685 122.246C60.4625 122.552 60.1583 122.78 59.7724 122.932C59.3865 123.083 58.9485 123.159 58.4585 123.159ZM58.4691 119.913C58.7414 119.913 58.9734 119.847 59.1651 119.714C59.3569 119.582 59.5025 119.391 59.6019 119.143C59.7013 118.894 59.7511 118.596 59.7511 118.248C59.7511 117.905 59.7013 117.604 59.6019 117.346C59.5049 117.088 59.3604 116.888 59.1687 116.746C58.9793 116.601 58.7461 116.529 58.4691 116.529C58.1826 116.529 57.9435 116.604 57.7518 116.753C57.56 116.902 57.4156 117.107 57.3185 117.367C57.2215 117.625 57.1729 117.919 57.1729 118.248C57.1729 118.582 57.2215 118.874 57.3185 119.125C57.418 119.374 57.5636 119.568 57.7553 119.707C57.9495 119.845 58.1874 119.913 58.4691 119.913ZM65.8129 118.706V115.545H67.0984V121H65.8519V120.031H65.7951C65.672 120.336 65.4696 120.586 65.1879 120.78C64.9085 120.974 64.564 121.071 64.1545 121.071C63.797 121.071 63.4809 120.992 63.2063 120.833C62.9341 120.672 62.721 120.439 62.5671 120.134C62.4132 119.826 62.3363 119.454 62.3363 119.018V115.545H63.6218V118.82C63.6218 119.165 63.7165 119.44 63.9059 119.643C64.0953 119.847 64.3439 119.949 64.6516 119.949C64.841 119.949 65.0245 119.903 65.2021 119.81C65.3796 119.718 65.5252 119.581 65.6388 119.398C65.7549 119.214 65.8129 118.983 65.8129 118.706ZM69.9899 121.11C69.6442 121.11 69.3329 121.049 69.0559 120.925C68.7813 120.8 68.5635 120.615 68.4025 120.371C68.2439 120.128 68.1646 119.827 68.1646 119.469C68.1646 119.162 68.2214 118.907 68.335 118.706C68.4487 118.505 68.6038 118.344 68.8002 118.223C68.9967 118.102 69.2181 118.011 69.4643 117.95C69.7129 117.886 69.9698 117.839 70.2349 117.811C70.5545 117.778 70.8137 117.748 71.0126 117.722C71.2115 117.694 71.3559 117.651 71.4458 117.594C71.5382 117.535 71.5843 117.444 71.5843 117.321V117.3C71.5843 117.032 71.505 116.825 71.3464 116.678C71.1878 116.531 70.9593 116.458 70.661 116.458C70.3462 116.458 70.0964 116.527 69.9118 116.664C69.7295 116.801 69.6064 116.964 69.5424 117.151L68.3422 116.98C68.4368 116.649 68.5931 116.372 68.8109 116.149C69.0287 115.924 69.295 115.756 69.6099 115.645C69.9248 115.531 70.2728 115.474 70.6539 115.474C70.9167 115.474 71.1783 115.505 71.4387 115.567C71.6992 115.628 71.9371 115.73 72.1525 115.872C72.368 116.012 72.5408 116.202 72.671 116.444C72.8036 116.685 72.8699 116.987 72.8699 117.349V121H71.6341V120.251H71.5914C71.5133 120.402 71.4032 120.544 71.2612 120.677C71.1215 120.807 70.9451 120.912 70.7321 120.993C70.5214 121.071 70.274 121.11 69.9899 121.11ZM70.3237 120.165C70.5817 120.165 70.8055 120.115 70.9949 120.013C71.1842 119.909 71.3298 119.771 71.4316 119.601C71.5358 119.43 71.5879 119.245 71.5879 119.043V118.401C71.5476 118.434 71.479 118.464 71.3819 118.493C71.2872 118.521 71.1807 118.546 71.0623 118.567C70.944 118.589 70.8268 118.608 70.7108 118.624C70.5948 118.641 70.4941 118.655 70.4089 118.667C70.2172 118.693 70.0455 118.736 69.894 118.795C69.7425 118.854 69.6229 118.937 69.5353 119.043C69.4477 119.147 69.4039 119.282 69.4039 119.448C69.4039 119.685 69.4904 119.864 69.6632 119.984C69.836 120.105 70.0562 120.165 70.3237 120.165ZM76.5346 123.159C76.073 123.159 75.6764 123.096 75.345 122.971C75.0136 122.848 74.7472 122.682 74.546 122.474C74.3448 122.265 74.2051 122.035 74.127 121.781L75.2846 121.501C75.3367 121.607 75.4125 121.713 75.5119 121.817C75.6113 121.923 75.7451 122.011 75.9132 122.08C76.0836 122.151 76.2979 122.186 76.5559 122.186C76.9205 122.186 77.2224 122.097 77.4615 121.92C77.7006 121.745 77.8201 121.456 77.8201 121.053V120.02H77.7562C77.6899 120.152 77.5929 120.289 77.465 120.428C77.3395 120.568 77.1726 120.685 76.9643 120.78C76.7583 120.875 76.4991 120.922 76.1866 120.922C75.7676 120.922 75.3876 120.824 75.0467 120.627C74.7082 120.428 74.4383 120.132 74.237 119.739C74.0382 119.344 73.9387 118.849 73.9387 118.255C73.9387 117.656 74.0382 117.151 74.237 116.739C74.4383 116.324 74.7093 116.011 75.0502 115.798C75.3912 115.582 75.7711 115.474 76.1902 115.474C76.5098 115.474 76.7725 115.529 76.9785 115.638C77.1868 115.744 77.3526 115.873 77.4757 116.025C77.5988 116.174 77.6923 116.315 77.7562 116.447H77.8272V115.545H79.095V121.089C79.095 121.555 78.9837 121.941 78.7612 122.246C78.5386 122.552 78.2344 122.78 77.8485 122.932C77.4627 123.083 77.0247 123.159 76.5346 123.159ZM76.5453 119.913C76.8175 119.913 77.0495 119.847 77.2413 119.714C77.4331 119.582 77.5787 119.391 77.6781 119.143C77.7775 118.894 77.8272 118.596 77.8272 118.248C77.8272 117.905 77.7775 117.604 77.6781 117.346C77.581 117.088 77.4366 116.888 77.2449 116.746C77.0555 116.601 76.8223 116.529 76.5453 116.529C76.2588 116.529 76.0197 116.604 75.8279 116.753C75.6362 116.902 75.4918 117.107 75.3947 117.367C75.2976 117.625 75.2491 117.919 75.2491 118.248C75.2491 118.582 75.2976 118.874 75.3947 119.125C75.4941 119.374 75.6397 119.568 75.8315 119.707C76.0256 119.845 76.2636 119.913 76.5453 119.913ZM82.8272 121.107C82.2804 121.107 81.8081 120.993 81.4103 120.766C81.015 120.536 80.7108 120.212 80.4977 119.793C80.2846 119.371 80.1781 118.875 80.1781 118.305C80.1781 117.744 80.2846 117.251 80.4977 116.827C80.7131 116.401 81.0138 116.07 81.3997 115.833C81.7856 115.594 82.2389 115.474 82.7598 115.474C83.0959 115.474 83.4132 115.529 83.7115 115.638C84.0121 115.744 84.2773 115.91 84.5069 116.135C84.7389 116.36 84.9212 116.646 85.0538 116.994C85.1864 117.34 85.2527 117.752 85.2527 118.23V118.624H80.7818V117.758H84.0204C84.0181 117.512 83.9648 117.293 83.8606 117.101C83.7565 116.907 83.6109 116.754 83.4238 116.643C83.2392 116.531 83.0237 116.476 82.7775 116.476C82.5147 116.476 82.2839 116.54 82.085 116.668C81.8862 116.793 81.7311 116.959 81.6199 117.165C81.5109 117.368 81.4553 117.592 81.4529 117.836V118.592C81.4529 118.91 81.5109 119.182 81.627 119.409C81.743 119.634 81.9051 119.807 82.1135 119.928C82.3218 120.046 82.5656 120.105 82.845 120.105C83.032 120.105 83.2013 120.079 83.3528 120.027C83.5043 119.973 83.6357 119.893 83.747 119.789C83.8583 119.685 83.9423 119.556 83.9991 119.402L85.1994 119.537C85.1236 119.854 84.9792 120.131 84.7662 120.368C84.5555 120.602 84.2856 120.785 83.9565 120.915C83.6274 121.043 83.251 121.107 82.8272 121.107Z" fill="white"/>
<path fill-rule="evenodd" clip-rule="evenodd" d="M32.8135 60.2047C33.5952 59.7869 34.5986 60.029 35.0545 60.7456C36.861 63.5853 39.6229 65.7326 43.0288 67.126C43.8552 67.4641 44.2262 68.3522 43.8573 69.1098C43.4885 69.8672 42.5195 70.2073 41.6931 69.8692C37.7352 68.2501 34.4147 65.7031 32.2234 62.2588C31.7675 61.5422 32.0317 60.6226 32.8135 60.2047Z" fill="white"/>
<path fill-rule="evenodd" clip-rule="evenodd" d="M64.2672 31.5335C62.1123 29.389 59.0391 28.598 56.0305 29.4322C55.1838 29.6669 54.3022 29.1884 54.0612 28.3633C53.8204 27.5383 54.3114 26.6791 55.1581 26.4443C59.2774 25.3022 63.5631 26.3926 66.5449 29.3601C67.1608 29.973 67.1502 30.9564 66.5213 31.5566C65.8922 32.1567 64.8831 32.1464 64.2672 31.5335Z" fill="white"/>
<path fill-rule="evenodd" clip-rule="evenodd" d="M47.2325 29.8615C46.7653 29.0937 45.4037 28.628 44.0205 29.3855C42.6424 30.1403 42.4 31.4708 42.8591 32.2252L48.3721 41.285C48.8274 42.0334 48.5635 42.994 47.7825 43.4305C47.0015 43.867 45.9992 43.614 45.5437 42.8655L38.1931 30.7859C37.7259 30.0181 36.3643 29.5524 34.9811 30.31C33.603 31.0647 33.3606 32.3952 33.8198 33.1497L42.0891 46.7392C42.5445 47.4876 42.2806 48.4484 41.4996 48.8847C40.7185 49.3213 39.7162 49.0684 39.2607 48.3198L35.5854 42.28C35.1182 41.5122 33.7566 41.0465 32.3734 41.8041C30.9953 42.5588 30.753 43.8892 31.2121 44.6437L39.4814 58.2333C42.9933 64.0047 51.6597 65.8777 59.0089 61.8525C66.3532 57.8302 68.9637 49.7947 65.46 44.0366L59.9472 34.9769C59.4799 34.2091 58.1183 33.7434 56.7351 34.5009C55.3571 35.2557 55.1146 36.5862 55.5739 37.3406L59.249 43.3805C59.469 43.7419 59.5292 44.1726 59.4162 44.5767C59.3031 44.9811 59.0263 45.3252 58.6472 45.5329C55.2803 47.3768 54.2485 50.9422 55.7225 53.3645C56.178 54.1131 55.9141 55.0737 55.1329 55.51C54.3519 55.9466 53.3496 55.6937 52.8941 54.9452C50.9019 51.6712 51.7069 47.7288 54.2801 44.9426C54.9996 44.1636 55.2458 43.0304 54.699 42.1318L47.2325 29.8615Z" fill="white"/>
</svg>
